<mxfile host="app.diagrams.net" modified="2022-04-21T09:43:29.710Z" agent="5.0 (Windows NT 10.0; WOW64) AppleWebKit/537.36 (KHTML, like Gecko) Chrome/78.0.3904.108 Safari/537.36" etag="3L6vOHHCgKqryD43vS6U" version="17.4.6" type="github">
  <diagram id="NsUplz_uinZOCI7nmMil" name="Page-1">
    <mxGraphModel dx="1822" dy="362" grid="0" gridSize="10" guides="1" tooltips="1" connect="1" arrows="1" fold="1" page="0" pageScale="1" pageWidth="827" pageHeight="1169" math="0" shadow="0">
      <root>
        <mxCell id="0" />
        <mxCell id="1" parent="0" />
        <mxCell id="jRPfxaUJ6jdpRpEulSyn-1" value="" style="rounded=0;whiteSpace=wrap;html=1;strokeColor=#66B2FF;fillColor=#f5f5f5;fontColor=#333333;" vertex="1" parent="1">
          <mxGeometry x="27" y="554" width="610" height="164" as="geometry" />
        </mxCell>
        <mxCell id="jRPfxaUJ6jdpRpEulSyn-7" value="" style="rounded=0;whiteSpace=wrap;html=1;strokeColor=#666666;fillColor=#f5f5f5;fontColor=#333333;" vertex="1" parent="1">
          <mxGeometry x="40" y="632" width="592" height="80" as="geometry" />
        </mxCell>
        <mxCell id="jRPfxaUJ6jdpRpEulSyn-2" value="" style="rounded=1;whiteSpace=wrap;html=1;dashed=1;strokeColor=#FF250D;" vertex="1" parent="1">
          <mxGeometry x="111" y="647" width="248" height="60" as="geometry" />
        </mxCell>
        <mxCell id="jRPfxaUJ6jdpRpEulSyn-3" value="" style="rounded=1;whiteSpace=wrap;html=1;dashed=1;strokeColor=#FF3D0D;" vertex="1" parent="1">
          <mxGeometry x="377" y="647" width="248" height="60" as="geometry" />
        </mxCell>
        <mxCell id="jRPfxaUJ6jdpRpEulSyn-4" value="关系型数据库" style="text;html=1;strokeColor=none;fillColor=none;align=center;verticalAlign=middle;whiteSpace=wrap;rounded=0;" vertex="1" parent="1">
          <mxGeometry x="191.5" y="644" width="87" height="30" as="geometry" />
        </mxCell>
        <mxCell id="jRPfxaUJ6jdpRpEulSyn-5" value="文档数据库" style="text;html=1;strokeColor=none;fillColor=none;align=center;verticalAlign=middle;whiteSpace=wrap;rounded=0;" vertex="1" parent="1">
          <mxGeometry x="454" y="644" width="87" height="30" as="geometry" />
        </mxCell>
        <mxCell id="jRPfxaUJ6jdpRpEulSyn-8" value="MySql" style="rounded=1;whiteSpace=wrap;html=1;strokeColor=#6c8ebf;fillColor=#dae8fc;" vertex="1" parent="1">
          <mxGeometry x="189.5" y="674" width="89" height="26" as="geometry" />
        </mxCell>
        <mxCell id="jRPfxaUJ6jdpRpEulSyn-9" value="MongoDB" style="rounded=1;whiteSpace=wrap;html=1;strokeColor=#6c8ebf;fillColor=#dae8fc;" vertex="1" parent="1">
          <mxGeometry x="453" y="674" width="89" height="26" as="geometry" />
        </mxCell>
        <mxCell id="jRPfxaUJ6jdpRpEulSyn-10" value="持久化存储" style="text;html=1;strokeColor=none;fillColor=none;align=center;verticalAlign=middle;whiteSpace=wrap;rounded=0;" vertex="1" parent="1">
          <mxGeometry x="38" y="632" width="76" height="30" as="geometry" />
        </mxCell>
        <mxCell id="jRPfxaUJ6jdpRpEulSyn-11" value="" style="rounded=0;whiteSpace=wrap;html=1;strokeColor=#666666;fillColor=#f5f5f5;fontColor=#333333;" vertex="1" parent="1">
          <mxGeometry x="40" y="575" width="592" height="48" as="geometry" />
        </mxCell>
        <mxCell id="jRPfxaUJ6jdpRpEulSyn-12" value="分布式缓存" style="text;html=1;strokeColor=none;fillColor=none;align=center;verticalAlign=middle;whiteSpace=wrap;rounded=0;" vertex="1" parent="1">
          <mxGeometry x="38" y="571" width="76" height="30" as="geometry" />
        </mxCell>
        <mxCell id="jRPfxaUJ6jdpRpEulSyn-13" value="Redis集群" style="rounded=1;whiteSpace=wrap;html=1;strokeColor=#6c8ebf;fillColor=#dae8fc;" vertex="1" parent="1">
          <mxGeometry x="288" y="586" width="89" height="26" as="geometry" />
        </mxCell>
        <mxCell id="jRPfxaUJ6jdpRpEulSyn-14" value="数据存储" style="text;html=1;strokeColor=none;fillColor=none;align=center;verticalAlign=middle;whiteSpace=wrap;rounded=0;fontStyle=1" vertex="1" parent="1">
          <mxGeometry x="20" y="549" width="76" height="30" as="geometry" />
        </mxCell>
        <mxCell id="jRPfxaUJ6jdpRpEulSyn-15" value="" style="shape=curlyBracket;whiteSpace=wrap;html=1;rounded=1;strokeColor=#000000;fontStyle=1;strokeWidth=2;" vertex="1" parent="1">
          <mxGeometry x="2" y="558.5" width="20" height="155" as="geometry" />
        </mxCell>
        <mxCell id="jRPfxaUJ6jdpRpEulSyn-17" value="存&lt;br&gt;储" style="text;html=1;strokeColor=none;fillColor=none;align=center;verticalAlign=middle;whiteSpace=wrap;rounded=0;fontStyle=1" vertex="1" parent="1">
          <mxGeometry x="-44" y="621" width="60" height="30" as="geometry" />
        </mxCell>
      </root>
    </mxGraphModel>
  </diagram>
</mxfile>
